<?xml version="1.0" standalone="no"?>
<!DOCTYPE svg PUBLIC "-//W3C//DTD SVG 20010904//EN"
 "http://www.w3.org/TR/2001/REC-SVG-20010904/DTD/svg10.dtd">
<svg version="1.0" xmlns="http://www.w3.org/2000/svg"
 width="330.000000pt" height="343.000000pt" viewBox="0 0 330.000000 343.000000"
 preserveAspectRatio="xMidYMid meet">
<metadata>
Created by potrace 1.16, written by Peter Selinger 2001-2019
</metadata>
<g transform="translate(0.000000,343.000000) scale(0.100000,-0.100000)"
fill="#000000" stroke="none">
<path d="M1345 3375 c-391 -54 -665 -181 -880 -407 -223 -235 -349 -550 -395
-992 -14 -130 -13 -470 0 -588 48 -410 171 -697 391 -917 267 -265 645 -391
1174 -391 206 0 315 9 472 40 496 97 835 382 1006 845 144 389 168 1009 56
1425 -140 518 -483 838 -1024 956 -200 43 -593 58 -800 29z m640 -279 c143
-26 232 -54 350 -111 186 -90 299 -191 401 -360 68 -111 110 -228 145 -405 82
-418 38 -955 -106 -1266 -139 -303 -396 -500 -752 -576 -98 -21 -133 -23 -373
-23 -292 1 -360 9 -542 66 -405 128 -620 396 -710 889 -29 159 -32 586 -5 760
56 353 161 580 353 759 170 159 355 238 669 285 74 11 483 -2 570 -18z"/>
<path d="M1535 2751 c-149 -25 -296 -91 -405 -184 -221 -187 -334 -546 -308
-982 28 -458 222 -749 568 -851 89 -27 107 -29 275 -29 171 0 185 1 270 29
118 37 255 108 304 157 31 32 42 53 52 97 12 61 6 180 -12 213 -18 34 -59 23
-142 -40 -159 -120 -266 -161 -421 -161 -294 0 -457 149 -523 475 -20 98 -22
398 -4 495 63 337 230 500 514 500 152 0 250 -36 406 -149 141 -102 186 -82
186 84 0 112 -13 138 -97 198 -147 104 -283 148 -478 152 -74 2 -157 0 -185
-4z"/>
</g>
</svg>
